<svg xmlns="http://www.w3.org/2000/svg" width="617.115" height="617.115" viewBox="0 0 617.115 617.115"><path d="M387.174 617.115a15.762 15.762 0 0 1-14.254-9.053L255.706 358.951 11.733 246.813a15.756 15.756 0 0 1-9.166-14.897 15.76 15.76 0 0 1 10.238-14.185L593.284.999a15.761 15.761 0 0 1 16.599 3.556 15.776 15.776 0 0 1 3.739 16.562l-211.615 585.59a15.76 15.76 0 0 1-14.09 10.383c-.245.018-.491.025-.743.025zM59.336 233.996l214.759 98.711a15.76 15.76 0 0 1 7.679 7.609L385.27 560.27 572.392 42.45 59.336 233.996z" fill="#fff"/></svg>